<svg width="40" height="40" viewBox="0 0 40 40" fill="none" xmlns="http://www.w3.org/2000/svg">
<rect width="40" height="40" rx="20" fill="#EB722E"/>
<path fill-rule="evenodd" clip-rule="evenodd" d="M25.6849 22.111C25.0659 22.7467 24.3223 23.2073 23.4955 23.528C22.7139 23.8296 21.8576 23.9828 21.0104 24.0856C21.1379 24.2236 21.198 24.293 21.2783 24.373C22.4294 25.5301 23.5851 26.6816 24.7315 27.8425C25.1223 28.2374 25.2045 28.7284 24.9893 29.19C24.7537 29.6915 24.2271 30.0226 23.7107 29.9865C23.3837 29.9636 23.1278 29.8009 22.9015 29.5735C22.0331 28.698 21.1481 27.8387 20.2972 26.949C20.0497 26.6901 19.9314 26.7396 19.7125 26.9632C18.8386 27.8625 17.9508 28.7503 17.0584 29.6315C16.6565 30.0274 16.1798 30.0987 15.7143 29.8723C15.22 29.6315 14.9059 29.1272 14.9299 28.62C14.9466 28.2764 15.1156 28.0138 15.3512 27.7797C16.4893 26.6406 17.6256 25.5006 18.7619 24.3597C18.8367 24.2854 18.9069 24.2045 19.0159 24.0865C17.4667 23.9257 16.0699 23.5432 14.8745 22.6059C14.7258 22.4907 14.5724 22.3775 14.4376 22.249C13.9138 21.7447 13.8611 21.168 14.275 20.5732C14.6297 20.0679 15.2246 19.93 15.8427 20.2202C15.9628 20.2792 16.0764 20.3487 16.1854 20.4257C18.4145 21.9588 21.476 22.0006 23.7135 20.4943C23.9352 20.3239 24.1726 20.1859 24.447 20.1146C24.9809 19.9766 25.4789 20.1755 25.7653 20.6399C26.0923 21.1756 26.0886 21.6961 25.6849 22.111ZM19.9601 20.1231C17.196 20.1136 14.9299 17.8203 14.9466 15.0502C14.9623 12.2487 17.2302 9.99146 20.021 10C22.8174 10.0067 25.0622 12.2962 25.0484 15.1263C25.0336 17.8907 22.7518 20.1327 19.9601 20.1231ZM20.0007 12.5836C18.6178 12.5836 17.5129 13.697 17.524 15.0863C17.5341 16.4566 18.6381 17.5443 20.0136 17.5376C21.3846 17.5338 22.4765 16.4309 22.4719 15.0559C22.4673 13.6808 21.3726 12.5855 20.0007 12.5836Z" fill="white"/>
</svg>
