<svg width="40" height="40" viewBox="0 0 40 40" fill="none" xmlns="http://www.w3.org/2000/svg">
<rect width="40" height="40" rx="20" fill="#00ACED"/>
<path fill-rule="evenodd" clip-rule="evenodd" d="M27.559 14.24C26.924 14.616 26.221 14.889 25.473 15.037C24.874 14.398 24.022 14 23.078 14C21.265 14 19.795 15.47 19.795 17.282C19.795 17.539 19.824 17.79 19.88 18.03C17.152 17.893 14.733 16.586 13.115 14.6C12.832 15.084 12.671 15.648 12.671 16.25C12.671 17.389 13.251 18.394 14.131 18.982C13.593 18.964 13.087 18.816 12.644 18.57V18.611C12.644 20.201 13.776 21.527 15.276 21.83C15.002 21.904 14.712 21.945 14.412 21.945C14.2 21.945 13.995 21.924 13.794 21.886C14.212 23.19 15.423 24.139 16.859 24.166C15.736 25.046 14.32 25.57 12.783 25.57C12.518 25.57 12.257 25.555 12 25.525C13.453 26.456 15.177 27 17.032 27C23.069 27 26.37 21.998 26.37 17.66L26.36 17.235C27.003 16.774 27.561 16.196 28 15.538C27.411 15.799 26.78 15.976 26.116 16.055C26.793 15.649 27.313 15.005 27.559 14.24Z" fill="white"/>
</svg>
