<svg width="400" height="166" viewBox="0 0 400 166" fill="none" xmlns="http://www.w3.org/2000/svg">
<path fill-rule="evenodd" clip-rule="evenodd" d="M3.58752 3.58447H44.2589V160.022H3.58752V3.58447Z" fill="black"/>
<g opacity="0.3">
<path opacity="0.3" d="M44.2588 3.58449V160.022H3.58744V3.58449H44.2588V3.58449ZM47.8463 0H44.2588H3.58744H0V3.58449V160.022V163.606H3.58744H44.2588H47.8463V160.022V3.58449V0Z" fill="#FBFBED"/>
</g>
<path fill-rule="evenodd" clip-rule="evenodd" d="M130.998 3.58447L121.579 76.6671L115.752 36.9254C114.053 24.1699 112.428 13.0555 110.878 3.58447H58.1475V160.022H93.7708L93.8989 56.7297L108.892 160.022H134.265L148.49 54.4305L148.618 160.022H184.128V3.58447H130.998V3.58447Z" fill="black"/>
<g opacity="0.3">
<path opacity="0.3" d="M184.128 3.58449V160.022H148.618L148.489 54.4305L134.265 160.022H108.892L93.8988 56.7297L93.7707 160.022H58.1474V3.58449H110.878C112.428 13.0552 114.053 24.1697 115.751 36.9254L121.579 76.6671L130.998 3.58449H184.128V3.58449ZM187.716 0H184.128H130.998H127.843L127.44 3.1267L121.35 50.3787L119.304 36.4297C117.609 23.7035 115.965 12.4582 114.418 3.00611L113.926 0.000253941H110.878H58.1474H54.5599V3.58474V160.022V163.607H58.1474H93.7707H97.3535L97.3581 160.027L97.425 105.998L105.341 160.537L105.787 163.607H108.892H134.265H137.402L137.821 160.501L144.966 107.455L145.03 160.027L145.034 163.607H148.618H184.128H187.716V160.022V3.585V0V0Z" fill="#FBFBED"/>
</g>
<path fill-rule="evenodd" clip-rule="evenodd" d="M247.731 31.7381C249.338 32.6675 250.368 34.1346 250.817 36.124C251.265 38.1185 251.493 42.6503 251.493 49.722V110.369C251.493 120.785 250.817 127.162 249.466 129.508C248.115 131.858 244.515 133.028 238.67 133.028V30.3402C243.101 30.3402 246.124 30.8061 247.731 31.7381V31.7381ZM247.311 160.022C257.054 160.022 264.346 159.492 269.189 158.429C274.03 157.369 278.094 155.503 281.389 152.835C284.679 150.167 286.985 146.47 288.31 141.738C289.632 137.015 290.419 127.636 290.419 113.615V58.6753C290.419 43.879 289.84 33.9577 288.938 28.9087C288.033 23.8622 285.776 19.2792 282.16 15.1621C278.547 11.0451 273.269 8.08789 266.329 6.28796C259.393 4.48803 248.067 3.58423 228.382 3.58423H198.037V160.022H247.311V160.022Z" fill="black"/>
<g opacity="0.3">
<path opacity="0.3" d="M228.382 3.58449C248.067 3.58449 259.393 4.4883 266.329 6.28822C273.268 8.08815 278.547 11.0454 282.16 15.1624C285.776 19.2794 288.033 23.8625 288.938 28.9089C289.84 33.9579 290.419 43.8793 290.419 58.6756V113.616C290.419 127.636 289.632 137.015 288.31 141.738C286.985 146.47 284.679 150.167 281.389 152.835C278.094 155.503 274.03 157.37 269.189 158.43C264.346 159.492 257.053 160.022 247.311 160.022H198.037V3.58475H228.382V3.58449ZM238.67 133.028C244.515 133.028 248.115 131.858 249.466 129.508C250.816 127.162 251.493 120.785 251.493 110.369V49.722C251.493 42.6503 251.265 38.1185 250.816 36.124C250.368 34.1346 249.337 32.6675 247.731 31.7381C246.124 30.8061 243.101 30.3402 238.67 30.3402V133.028V133.028ZM228.382 0H198.037H194.45V3.58449V160.022V163.606H198.037H247.311C257.411 163.606 264.819 163.058 269.959 161.931C275.319 160.757 279.925 158.634 283.647 155.62C287.512 152.486 290.243 148.141 291.765 142.704C293.252 137.391 294.006 127.604 294.006 113.616V58.6758C294.006 44.4185 293.475 33.9078 292.47 28.2793C291.451 22.5987 288.89 17.3909 284.857 12.7984C280.78 8.15293 274.85 4.79528 267.231 2.81895C259.718 0.869238 247.736 0 228.382 0V0ZM242.258 129.246V34.0598C244.743 34.2741 245.662 34.683 245.93 34.8379C246.424 35.1239 247.024 35.6158 247.316 36.9116C247.536 37.8881 247.905 40.854 247.905 49.722V110.369C247.905 123.973 246.72 127.089 246.356 127.72C246.277 127.859 245.609 128.824 242.258 129.246V129.246Z" fill="#FBFBED"/>
</g>
<path fill-rule="evenodd" clip-rule="evenodd" d="M357.169 122.062C357.169 129.633 356.792 134.416 356.041 136.405C355.288 138.397 352.013 139.398 349.53 139.398C347.109 139.398 345.494 138.438 344.674 136.51C343.857 134.585 343.452 130.189 343.452 123.317V81.9748C343.452 74.8467 343.81 70.4045 344.531 68.6353C345.248 66.8738 346.817 65.9879 349.235 65.9879C351.716 65.9879 355.045 66.9941 355.895 69.0168C356.743 71.0395 357.169 75.3588 357.169 81.9696V122.062V122.062ZM304.272 3.58447V160.022H340.887L343.421 150.055C346.732 154.061 350.383 157.067 354.378 159.07C358.371 161.071 364.334 162.07 368.943 162.07C375.373 162.07 380.923 160.383 385.599 157.014C390.273 153.642 393.246 149.655 394.514 145.062C395.78 140.466 396.413 133.484 396.413 124.103V80.2132C396.413 70.7681 396.2 64.6028 395.78 61.7121C395.355 58.8215 394.109 55.8668 392.034 52.8482C389.956 49.8321 386.939 47.4868 382.978 45.8149C379.019 44.1404 374.35 43.3058 368.964 43.3058C364.29 43.3058 358.299 44.2352 354.307 46.0786C350.314 47.9221 346.696 50.7205 343.452 54.4715V3.58447H304.272V3.58447Z" fill="black"/>
<g opacity="0.3">
<path opacity="0.3" d="M343.451 3.58449V54.4715C346.696 50.7206 350.314 47.9221 354.306 46.0787C358.298 44.2352 364.289 43.3058 368.963 43.3058C374.35 43.3058 379.018 44.1405 382.977 45.8149C386.939 47.4868 389.955 49.8321 392.033 52.8482C394.109 55.8669 395.354 58.8215 395.779 61.7122C396.2 64.6028 396.412 70.7681 396.412 80.2133V124.103C396.412 133.484 395.779 140.466 394.514 145.062C393.245 149.655 390.273 153.642 385.599 157.014C380.922 160.383 375.372 162.07 368.943 162.07C364.333 162.07 358.37 161.072 354.378 159.07C350.383 157.067 346.731 154.061 343.421 150.055L340.886 160.022H304.272V3.58449H343.451V3.58449ZM349.53 139.398C352.013 139.398 355.288 138.397 356.041 136.405C356.792 134.416 357.168 129.633 357.168 122.062V81.9697C357.168 75.3588 356.743 71.0395 355.895 69.0168C355.044 66.9942 351.715 65.9879 349.235 65.9879C346.816 65.9879 345.248 66.8738 344.53 68.6354C343.81 70.4046 343.451 74.8468 343.451 81.9748V123.317C343.451 130.189 343.857 134.585 344.674 136.51C345.494 138.438 347.108 139.398 349.53 139.398V139.398ZM347.039 0H343.451H304.272H300.684V3.58449V160.022V163.606H304.272H340.887H343.677L344.364 160.905L345.311 157.179C347.661 159.258 350.155 160.963 352.77 162.273C357.746 164.769 364.593 165.655 368.943 165.655C376.107 165.655 382.417 163.725 387.697 159.921C393.03 156.074 396.486 151.395 397.972 146.015C399.337 141.059 400 133.892 400 124.103V80.213C400 70.5185 399.781 64.2981 399.33 61.1965C398.824 57.7615 397.365 54.2718 394.99 50.8181C392.524 47.2385 388.952 44.4449 384.373 42.5126C379.994 40.6607 374.809 39.721 368.963 39.721C364.608 39.721 357.762 40.5337 352.801 42.8244C350.8 43.7487 348.876 44.8924 347.039 46.2482V3.58449V0V0ZM349.53 135.814C348.276 135.814 348.13 135.471 347.976 135.108C347.757 134.592 347.039 132.211 347.039 123.317V81.9748C347.039 72.7076 347.663 70.455 347.854 69.9854C347.92 69.8223 347.962 69.7988 348.007 69.7737C348.091 69.7263 348.427 69.5724 349.235 69.5724C350.847 69.5724 352.266 70.1667 352.628 70.5077C352.944 71.346 353.581 74.0277 353.581 81.9699V122.062C353.581 131.103 353.032 134.051 352.741 134.978C352.346 135.294 351.015 135.814 349.53 135.814V135.814Z" fill="#FBFBED"/>
</g>
</svg>
