<svg width="16" height="15" viewBox="0 0 16 15" fill="none" xmlns="http://www.w3.org/2000/svg">
<path d="M3.85748 1.74986C3.85748 2.71997 3.11345 3.4976 1.91724 3.4976H1.89495C0.743317 3.49831 0 2.71926 0 1.74986C0 0.756487 0.76704 4.91927e-07 1.93952 4.91927e-07C3.11345 -0.000704528 3.83592 0.756487 3.85748 1.74986ZM0.201285 14.9993H3.63176V4.88015H0.201285V14.9993ZM12.0512 4.64326C10.2317 4.64326 9.41726 5.62324 8.95934 6.31416V6.34659H8.93705C8.94568 6.33672 8.95359 6.32544 8.95934 6.31416V4.88085H5.52959C5.57416 5.8291 5.52959 15 5.52959 15H8.95934V9.34856C8.95934 9.04399 8.98019 8.74577 9.0722 8.52792C9.32093 7.92583 9.88597 7.29625 10.8306 7.29625C12.0735 7.29625 12.5702 8.22617 12.5702 9.58545V15H16V9.19839C16.0007 6.08785 14.307 4.64326 12.0512 4.64326Z" fill="white"/>
</svg>
