<svg width="288" height="192" viewBox="0 0 288 192" fill="none" xmlns="http://www.w3.org/2000/svg">
<rect width="288" height="192" fill="#F0F0F0"/>
<path d="M184.024 69.8353H104V70.8706H184.024V69.8353Z" fill="#ED1C24"/>
<path fill-rule="evenodd" clip-rule="evenodd" d="M170.024 85.5765V92.7059C170.024 93.9765 170.094 94.7765 170.235 95.1059C170.376 95.4353 170.612 95.6941 170.965 95.8824C171.318 96.0706 171.953 96.1882 172.894 96.1882V96.8H162.353V96.1882C163.318 96.1882 163.953 96.0941 164.282 95.8824C164.635 95.6706 164.871 95.4118 164.988 95.1059C165.129 94.7765 165.2 93.9765 165.2 92.7059V77.3176C165.2 76.0471 165.129 75.2471 164.988 74.9177C164.847 74.5882 164.612 74.3294 164.259 74.1412C163.906 73.9529 163.271 73.8353 162.329 73.8353V73.2235L172.015 73.2235C176.412 73.2231 181.413 73.2227 181.529 78.8235C181.652 84.1325 176.334 84.409 175.234 84.4662C175.066 84.4749 174.997 84.4786 175.059 84.4941C175.443 84.5961 175.846 84.6588 176.248 84.7216C177.054 84.8471 177.859 84.9726 178.518 85.4118C180.924 86.9691 181.262 92.2815 181.37 93.9671C181.387 94.2423 181.399 94.421 181.412 94.4706C181.647 95.3882 182.165 96.3059 183.788 95.4824V96.1176C183.247 96.8471 179.976 98.0706 178 96.7765C176.4 95.3699 176.23 92.9324 176.071 90.6485C175.823 87.0871 175.6 83.8992 170.024 85.5765ZM170.024 84.3294H170.894C172.306 84.3294 173.365 84.1882 174.071 83.8824C176.682 82.8 177.647 74.5177 171.671 74.5177H170.024V84.3294Z" fill="#ED1C24"/>
<path fill-rule="evenodd" clip-rule="evenodd" d="M146.024 90.1412H152.565L153.576 93.0353C153.835 93.8118 153.976 94.2588 154 94.3529C154.047 94.5882 154.071 94.8 154.071 95.0118C154.071 95.3647 153.976 95.6235 153.765 95.8118C153.482 96.0706 152.965 96.1882 152.235 96.1882H151.859V96.7765H160.918V96.1882C160.353 96.1176 159.906 95.9059 159.6 95.5529C159.2 95.0824 158.635 93.9294 158.024 92.0941L151.6 73.0118H150.682L144.329 91.5765C143.718 93.3882 143.153 94.5647 142.729 95.1294C142.306 95.7176 141.741 96.0706 141.082 96.1882V96.7765H147.294V96.1882C146.329 96.0941 145.718 95.9529 145.459 95.7647C145.035 95.4588 144.824 94.9647 144.824 94.3059C144.824 93.8118 144.941 93.1765 145.2 92.4235L146.024 90.1412ZM149.318 80.9412L152.118 88.8706H146.447L149.318 80.9412Z" fill="#ED1C24"/>
<path d="M140.024 73.2235V80.8941H139.482C138.753 77.6471 138.047 74.5647 134.682 74.5647H133.106V92.7529C133.106 93.9765 133.153 94.7294 133.271 95.0353C133.388 95.3412 133.624 95.6 133.953 95.8353C134.306 96.0706 134.753 96.1882 135.341 96.1882H136.024V96.8H125.129V96.1882H125.812C126.424 96.1882 126.894 96.0706 127.271 95.8118C127.529 95.6471 127.741 95.3647 127.906 94.9647C128.024 94.6824 128.071 93.9529 128.071 92.7529V74.5647H126.565C123.388 74.5647 122.282 78.7529 122 80.8941H121.247V73.2235H140.024Z" fill="#ED1C24"/>
<path d="M118.306 80.7294L118.141 72.9647V72.9177H117.647C117.506 73.6235 117.365 74.0471 117.2 74.2353C117.035 74.4 116.824 74.4941 116.541 74.4941C116.259 74.4941 115.741 74.3294 115.012 73.9529C114.282 73.6 113.671 73.3412 113.153 73.2C112.494 73.0353 111.788 72.9412 111.082 72.9412C109.106 72.9412 107.506 73.6 106.212 74.8941C104.918 76.2118 104.282 77.7882 104.282 79.6471C104.282 80.7294 104.518 81.7176 104.988 82.6353C105.459 83.5294 106.118 84.3529 106.988 85.0824C107.859 85.8118 109.294 86.7059 111.294 87.7412C112.729 88.4941 113.718 89.0824 114.282 89.5529C114.847 90 115.247 90.4941 115.529 91.0118C115.812 91.5294 115.953 92.0706 115.953 92.6118C115.953 93.5529 115.6 94.3529 114.871 95.0588C114.165 95.7647 113.176 96.1176 111.976 96.1176C110.4 96.1176 108.941 95.4588 107.576 94.1647C106.212 92.8706 105.459 90.9882 104.988 88.5176H104.424V96.8235H105.718C106.097 96.2151 106.251 95.9035 106.485 95.8232C106.731 95.7389 107.064 95.9094 107.835 96.2588C108.776 96.6824 109.553 96.9647 110.165 97.1059C110.776 97.2471 111.435 97.3176 112.118 97.3176C114.329 97.3176 116.141 96.6118 117.576 95.2235C118.988 93.8353 119.718 92.1647 119.718 90.2118C119.718 88.6824 119.482 86.5647 118.635 85.3412C117.396 83.5192 115.104 82.5598 113.048 81.6989C111.864 81.2034 110.759 80.7406 109.976 80.1647C109.762 80.0074 109.537 79.8632 109.318 79.7234C108.818 79.4031 108.354 79.1062 108.141 78.7294C107.906 78.3294 107.788 77.8824 107.788 77.3647C107.788 76.5647 108.118 75.8353 108.753 75.2235C109.388 74.5882 110.259 74.2824 111.365 74.2824C112.776 74.2824 114.118 74.8706 115.341 76.0471C116.565 77.2235 117.341 78.7765 117.647 80.7294H118.306Z" fill="#ED1C24"/>
<path d="M173.671 66H114.259V69.8353H173.671V66Z" fill="#ED1C24"/>
<path d="M184.024 98.8H104V99.8353H184.024V98.8Z" fill="#ED1C24"/>
<path d="M104 121.059H184.024V122.094H173.671V125.929H114.259V122.094H104V121.059Z" fill="#ED1C24"/>
<path d="M167.341 118.259H166.8C166.376 118.259 166.047 118.188 165.788 118C165.529 117.812 165.365 117.624 165.271 117.388C165.2 117.153 165.153 116.565 165.153 115.647V103.765C165.153 102.847 165.2 102.282 165.271 102.071C165.388 101.765 165.553 101.553 165.741 101.435C166.024 101.247 166.376 101.153 166.824 101.153H167.341V100.682H159.294V101.153H159.812C160.259 101.153 160.588 101.224 160.847 101.412C161.082 101.6 161.247 101.788 161.341 102.024C161.412 102.259 161.459 102.847 161.459 103.765V115.647C161.459 116.565 161.412 117.129 161.341 117.341C161.247 117.647 161.082 117.859 160.894 117.976C160.612 118.165 160.259 118.259 159.812 118.259H159.294V118.729H167.341V118.259Z" fill="#ED1C24"/>
<path fill-rule="evenodd" clip-rule="evenodd" d="M141.812 118.659V118.235H142.329C142.776 118.235 143.129 118.165 143.365 117.976C143.6 117.812 143.788 117.576 143.882 117.294C143.953 117.106 143.976 116.541 143.976 115.6V103.718C143.976 102.8 143.929 102.212 143.859 101.976C143.765 101.741 143.6 101.553 143.365 101.365C143.106 101.176 142.776 101.106 142.329 101.106H141.812V100.635H148.729C150.565 100.635 152.047 100.941 153.176 101.506C154.541 102.212 155.6 103.318 156.306 104.753C157.012 106.212 157.365 107.859 157.365 109.694C157.365 110.965 157.2 112.118 156.847 113.2C156.494 114.259 156.047 115.153 155.506 115.835C154.941 116.518 154.306 117.082 153.576 117.506C152.847 117.929 151.953 118.259 150.918 118.494C150.447 118.588 149.718 118.659 148.729 118.659H141.812ZM147.694 101.694V115.741C147.694 116.494 147.718 116.941 147.788 117.106C147.835 117.271 147.953 117.412 148.094 117.482C148.306 117.624 148.588 117.671 148.988 117.671C150.259 117.671 151.224 117.176 151.906 116.165C152.824 114.8 153.271 112.682 153.271 109.812C153.271 107.506 152.965 105.647 152.329 104.282C151.835 103.2 151.2 102.471 150.424 102.071C149.859 101.812 148.965 101.694 147.694 101.694Z" fill="#ED1C24"/>
<path d="M131.835 108.4V101.718H133.529C134.753 101.718 135.6 101.788 136.047 101.953C138.164 102.674 138.487 104.545 138.812 106.429L138.824 106.494H139.294V100.682H125.6V101.153H126.141C126.659 101.153 127.082 101.271 127.388 101.529C127.6 101.718 127.765 101.953 127.835 102.259C127.882 102.447 127.906 102.941 127.906 103.765V115.647C127.906 116.565 127.859 117.129 127.765 117.341C127.671 117.647 127.506 117.859 127.294 117.976C126.988 118.165 126.612 118.259 126.141 118.259H125.6V118.729H139.6L139.835 112.847H139.388C138.635 115.812 136.988 117.718 134.376 117.718H133.388C132.918 117.718 132.588 117.647 132.376 117.506C132.165 117.365 132.024 117.176 131.953 116.965C131.882 116.753 131.835 116.141 131.835 115.153V109.106C132.612 109.106 133.882 109.2 134.282 109.435C135.129 109.882 135.553 111.553 135.647 112.447H136.118V105.153H135.647C135.647 108.165 134.071 108.4 132.165 108.4H131.835Z" fill="#ED1C24"/>
<path d="M114.024 112.565L117.882 100.706H123.6V101.176H123.129C122.706 101.176 122.376 101.271 122.141 101.459C121.976 101.576 121.835 101.788 121.718 102.094C121.647 102.306 121.6 102.871 121.6 103.788V115.647C121.6 116.565 121.647 117.153 121.718 117.388C121.788 117.624 121.953 117.812 122.188 118C122.424 118.188 122.729 118.259 123.129 118.259H123.6V118.729H116.259V118.259H116.729C117.153 118.259 117.482 118.165 117.718 117.976C117.882 117.859 118.024 117.647 118.141 117.341C118.212 117.129 118.259 116.565 118.259 115.647V102.306L112.8 118.706H112.541L107.035 102.424V115.106C107.035 116 107.059 116.541 107.082 116.753C107.176 117.2 107.365 117.553 107.671 117.835C107.976 118.118 108.447 118.259 109.106 118.259V118.729H104.259V118.259H104.4C104.706 118.259 105.012 118.212 105.271 118.071C105.553 117.929 105.741 117.741 105.882 117.506C106.024 117.271 106.141 116.941 106.212 116.518C106.235 116.424 106.235 115.976 106.235 115.153V103.765C106.235 102.847 106.188 102.259 106.118 102.024C106.047 101.788 105.882 101.6 105.647 101.412C105.412 101.224 105.082 101.153 104.706 101.153H104.259V100.682H110.024L114.024 112.565Z" fill="#ED1C24"/>
<path fill-rule="evenodd" clip-rule="evenodd" d="M172.353 113.576H177.412L178.188 115.859C178.356 116.324 178.449 116.641 178.493 116.789C178.505 116.829 178.513 116.856 178.518 116.871C178.565 117.035 178.588 117.2 178.588 117.365C178.588 117.624 178.518 117.835 178.353 117.976C178.141 118.188 177.741 118.282 177.176 118.282H176.894V118.753H183.882V118.282C183.435 118.235 183.082 118.071 182.847 117.788C182.541 117.412 182.094 116.518 181.624 115.106L176.659 100.353H175.953L171.035 114.706C170.541 116.094 170.118 117.012 169.788 117.459C169.459 117.882 169.035 118.165 168.518 118.259V118.729H173.318V118.259C172.565 118.188 172.094 118.071 171.906 117.929C171.576 117.694 171.412 117.318 171.412 116.8C171.412 116.424 171.506 115.929 171.718 115.341L172.353 113.576ZM174.894 106.447L177.059 112.588H172.706L174.894 106.447Z" fill="#ED1C24"/>
</svg>
