<svg width="16" height="13" viewBox="0 0 16 13" fill="none" xmlns="http://www.w3.org/2000/svg">
    <path fill-rule="evenodd" clip-rule="evenodd"
          d="M15.559 0.24C14.924 0.616 14.221 0.889 13.473 1.037C12.874 0.398 12.022 0 11.078 0C9.265 0 7.795 1.47 7.795 3.282C7.795 3.539 7.824 3.79 7.88 4.03C5.152 3.893 2.733 2.586 1.115 0.6C0.832 1.084 0.671 1.648 0.671 2.25C0.671 3.389 1.251 4.394 2.131 4.982C1.593 4.964 1.087 4.816 0.644 4.57V4.611C0.644 6.201 1.776 7.527 3.276 7.83C3.002 7.904 2.712 7.945 2.412 7.945C2.2 7.945 1.995 7.924 1.794 7.886C2.212 9.19 3.423 10.139 4.859 10.166C3.736 11.046 2.32 11.57 0.783 11.57C0.518 11.57 0.257 11.555 0 11.525C1.453 12.456 3.177 13 5.032 13C11.069 13 14.37 7.998 14.37 3.66L14.36 3.235C15.003 2.774 15.561 2.196 16 1.538C15.411 1.799 14.78 1.976 14.116 2.055C14.793 1.649 15.313 1.005 15.559 0.24Z"
          fill="white"/>
</svg>
